<svg width="500" height="500" viewBox="0 0 500 500" fill="none" xmlns="http://www.w3.org/2000/svg">
<rect width="500" height="500" rx="100" fill="black"/>
<path d="M411.011 221.161C410.36 217.34 409.563 213.646 408.752 210.222C404.371 190.606 396.193 171.996 384.664 155.401L377.957 145.726L382.1 156.693C387.378 170.712 390.289 185.482 390.718 200.42C390.472 204.824 390.139 208.83 389.704 212.68C388.03 229.433 383.563 245.803 376.48 261.137C375.973 262.188 375.451 263.225 374.93 264.263C368.508 276.894 359.654 288.187 348.857 297.519C333.72 310.313 315.51 319.114 295.944 323.091V298.386C305.848 294.285 315.136 288.879 323.552 282.319C337.068 271.069 347.734 256.893 354.708 240.91C361.683 224.926 364.777 207.572 363.744 190.216C362.712 172.859 357.582 155.975 348.76 140.895C339.937 125.816 327.663 112.953 312.906 103.32L304.881 98.0639L310.994 105.395C316.953 112.529 321.662 120.585 324.928 129.233C325.783 131.506 326.521 133.793 327.144 136.023C328.468 140.821 329.331 145.729 329.723 150.684V150.769C329.896 152.943 329.969 155.173 329.94 157.403V157.972C329.94 158.356 329.94 158.739 329.94 159.151C329.839 161.96 329.587 164.763 329.187 167.547L328.796 170.033C325.58 188.006 316.163 204.348 302.123 216.321C288.083 228.293 270.273 235.168 251.678 235.793H248.781C230.203 235.145 212.415 228.258 198.395 216.285C184.375 204.311 174.974 187.978 171.766 170.019L171.374 167.533C170.952 164.731 170.682 161.909 170.563 159.08C170.563 158.668 170.563 158.284 170.563 157.901V157.332C170.563 155.102 170.563 152.872 170.781 150.698V150.613C171.172 145.658 172.035 140.75 173.359 135.952C173.982 133.722 174.72 131.434 175.575 129.161C178.841 120.513 183.55 112.458 189.509 105.324L195.622 97.9932L187.597 103.25C172.84 112.882 160.566 125.745 151.743 140.825C142.921 155.904 137.791 172.788 136.759 190.145C135.726 207.501 138.82 224.855 145.795 240.839C152.77 256.822 163.435 270.998 176.951 282.248C185.367 288.809 194.655 294.214 204.559 298.314V323.019C184.993 319.042 166.783 310.242 151.646 297.448C140.882 288.112 132.058 276.825 125.66 264.206C125.139 263.169 124.617 262.131 124.11 261.08C117.027 245.747 112.56 229.376 110.886 212.623C110.451 208.773 110.118 204.767 109.872 200.363C110.325 185.421 113.26 170.651 118.563 156.636L122.705 145.669L115.999 155.344C104.416 171.946 96.1943 190.577 91.7803 210.222C90.9402 213.646 90.1725 217.325 89.5207 221.161C86.3545 243.679 88.1446 266.6 94.7702 288.383C101.396 310.165 112.703 330.302 127.931 347.437C143.159 364.573 161.954 378.31 183.05 387.723C204.146 397.135 227.053 402.006 250.23 402.006C273.406 402.006 296.314 397.135 317.41 387.723C338.506 378.31 357.301 364.573 372.529 347.437C387.756 330.302 399.064 310.165 405.69 288.383C412.315 266.6 414.105 243.679 410.939 221.161H411.011ZM164.002 209.1C164.929 210.904 165.914 212.665 166.899 214.37C175.38 228.676 187.542 240.549 202.167 248.802C216.793 257.054 233.371 261.397 250.244 261.397C267.118 261.397 283.696 257.054 298.321 248.802C312.947 240.549 325.108 228.676 333.59 214.37C334.633 212.665 335.618 210.904 336.487 209.1C334.788 222.369 329.965 235.069 322.401 246.195C314.837 257.322 304.738 266.571 292.902 273.212L292.598 273.397C279.658 280.568 265.049 284.336 250.186 284.336C235.324 284.336 220.714 280.568 207.775 273.397L207.471 273.212C195.643 266.566 185.553 257.315 177.996 246.188C170.44 235.062 165.624 222.365 163.929 209.1H164.002ZM191.813 358.265L191.653 358.379L191.523 358.464L191.204 358.648L181.948 364.402C149.807 348.775 128.354 322.749 123.748 294.096C125.1 296.141 126.549 298.13 128.094 300.062C145.476 322.792 173.098 339.527 204.863 347.724C204.129 348.491 203.376 349.244 202.604 349.983C199.404 353.018 195.906 355.735 192.16 358.094L191.813 358.265ZM267.25 381.236C261.636 381.989 255.982 382.407 250.317 382.486V382.486C244.652 382.407 238.997 381.989 233.384 381.236C221.791 379.707 210.451 376.703 199.649 372.3C199.967 372.101 200.286 371.917 200.59 371.704C205.071 368.89 209.254 365.645 213.076 362.015C215.825 359.399 218.386 356.599 220.739 353.634L221.231 353.037C224.507 348.746 226.267 343.524 226.243 338.163V305.844L226.895 305.958C242.385 308.8 258.278 308.8 273.768 305.958L274.419 305.844V338.078C274.395 343.439 276.155 348.661 279.431 352.952L279.924 353.549C282.277 356.513 284.837 359.314 287.586 361.93C291.409 365.56 295.591 368.805 300.072 371.619C300.376 371.832 300.695 372.016 301.014 372.215C290.181 376.636 278.806 379.649 267.177 381.179L267.25 381.236ZM318.656 364.402L309.4 358.648L309.082 358.464L308.951 358.379L308.792 358.265L308.502 358.094C304.756 355.735 301.258 353.018 298.059 349.983C297.296 349.244 296.543 348.491 295.799 347.724C327.564 339.527 355.187 322.764 372.569 300.062C374.075 298.168 375.524 296.179 376.914 294.096C372.178 322.693 350.726 348.761 318.584 364.345L318.656 364.402Z" fill="white"/>
</svg>
