<svg width="300" height="300" viewBox="0 0 300 300" fill="none" xmlns="http://www.w3.org/2000/svg">
<rect width="300" height="300" rx="40" fill="#272727"/>
<path d="M260.009 130.649C259.563 128.033 259.018 125.504 258.463 123.161C255.466 109.734 249.872 96.9953 241.984 85.6362L237.396 79.0141L240.23 86.5207C243.841 96.1166 245.832 106.226 246.126 116.451C245.958 119.466 245.73 122.208 245.433 124.843C244.288 136.311 241.231 147.516 236.385 158.012C236.039 158.731 235.682 159.441 235.325 160.151C230.932 168.797 224.875 176.528 217.488 182.915C207.133 191.672 194.675 197.696 181.29 200.418V183.508C188.066 180.701 194.42 177.001 200.177 172.51C209.423 164.81 216.72 155.107 221.492 144.166C226.263 133.226 228.379 121.347 227.673 109.467C226.967 97.5864 223.458 86.0294 217.422 75.7075C211.386 65.3856 202.99 56.581 192.894 49.9878L187.404 46.3897L191.586 51.4075C195.663 56.2906 198.884 61.805 201.118 67.7246C201.703 69.2805 202.208 70.8458 202.635 72.3725C203.54 75.6563 204.13 79.0158 204.398 82.4075V82.4659C204.517 83.9537 204.567 85.4803 204.547 87.0069V87.3963C204.547 87.6588 204.547 87.921 204.547 88.203C204.478 90.1261 204.306 92.0445 204.032 93.95L203.764 95.6517C201.565 107.954 195.122 119.14 185.517 127.335C175.912 135.531 163.728 140.236 151.007 140.664H149.025C136.316 140.221 124.147 135.507 114.555 127.311C104.964 119.115 98.5329 107.935 96.338 95.6422L96.0705 93.9405C95.7818 92.0229 95.5966 90.0914 95.5156 88.1545C95.5156 87.8725 95.5156 87.6099 95.5156 87.3474V86.9585C95.5156 85.4318 95.5156 83.9052 95.6642 82.4175V82.3591C95.9321 78.9674 96.5226 75.6079 97.428 72.3241C97.8541 70.7974 98.3595 69.2316 98.9442 67.6757C101.179 61.7561 104.4 56.2422 108.477 51.359L112.659 46.3413L107.169 49.9394C97.073 56.5325 88.6761 65.3372 82.6405 75.6591C76.6049 85.981 73.0956 97.5379 72.3894 109.418C71.6832 121.298 73.7993 133.177 78.571 144.118C83.3427 155.058 90.6393 164.762 99.8855 172.462C105.643 176.953 111.997 180.652 118.773 183.459V200.37C105.387 197.647 92.9292 191.623 82.5741 182.866C75.21 176.476 69.1736 168.75 64.7969 160.112C64.4402 159.402 64.0834 158.692 63.7366 157.973C58.8909 147.477 55.8345 136.272 54.6895 124.804C54.3922 122.169 54.1643 119.427 53.9958 116.413C54.3055 106.185 56.3137 96.0749 59.9414 86.4818L62.7754 78.9751L58.1874 85.5972C50.2636 96.9614 44.6388 109.714 41.6192 123.161C41.0444 125.504 40.5192 128.023 40.0733 130.649C37.9073 146.062 39.1319 161.751 43.6646 176.661C48.1973 191.571 55.9328 205.354 66.3504 217.084C76.7679 228.813 89.6256 238.215 104.058 244.658C118.49 251.101 134.161 254.436 150.016 254.436C165.872 254.436 181.543 251.101 195.975 244.658C210.407 238.215 223.265 228.813 233.682 217.084C244.1 205.354 251.836 191.571 256.368 176.661C260.901 161.751 262.126 146.062 259.96 130.649H260.009ZM91.0267 122.393C91.6609 123.628 92.3347 124.833 93.0085 126C98.8109 135.793 107.131 143.92 117.136 149.568C127.142 155.217 138.483 158.19 150.026 158.19C161.57 158.19 172.911 155.217 182.916 149.568C192.922 143.92 201.242 135.793 207.044 126C207.758 124.833 208.431 123.628 209.026 122.393C207.863 131.475 204.564 140.168 199.39 147.784C194.215 155.401 187.306 161.732 179.209 166.277L179.001 166.404C170.149 171.312 160.154 173.891 149.987 173.891C139.819 173.891 129.825 171.312 120.972 166.404L120.764 166.277C112.673 161.728 105.77 155.396 100.6 147.78C95.4309 140.164 92.1364 131.473 90.9771 122.393H91.0267ZM110.052 224.495L109.943 224.573L109.854 224.631L109.636 224.757L103.304 228.695C81.3156 217.999 66.64 200.185 63.4889 180.572C64.4137 181.972 65.4047 183.333 66.4616 184.656C78.3527 200.214 97.2497 211.669 118.981 217.28C118.479 217.805 117.963 218.32 117.435 218.826C115.246 220.904 112.853 222.764 110.29 224.378L110.052 224.495ZM161.66 240.218C157.82 240.734 153.951 241.02 150.076 241.074V241.074C146.2 241.02 142.332 240.734 138.492 240.218C130.561 239.172 122.803 237.115 115.413 234.102C115.631 233.966 115.849 233.84 116.057 233.694C119.123 231.768 121.984 229.546 124.599 227.062C126.48 225.271 128.231 223.354 129.841 221.325L130.178 220.916C132.419 217.979 133.623 214.405 133.607 210.735V188.613L134.053 188.691C144.649 190.636 155.522 190.636 166.119 188.691L166.565 188.613V210.677C166.548 214.346 167.752 217.921 169.993 220.858L170.33 221.267C171.94 223.296 173.692 225.213 175.572 227.004C178.187 229.488 181.049 231.71 184.114 233.635C184.322 233.781 184.54 233.907 184.758 234.044C177.347 237.069 169.566 239.132 161.61 240.18L161.66 240.218ZM196.828 228.695L190.496 224.757L190.278 224.631L190.189 224.573L190.08 224.495L189.881 224.378C187.319 222.764 184.925 220.904 182.737 218.826C182.215 218.32 181.7 217.805 181.191 217.28C202.922 211.669 221.819 200.195 233.71 184.656C234.741 183.359 235.731 181.998 236.683 180.572C233.442 200.146 218.767 217.99 196.778 228.657L196.828 228.695Z" fill="white"/>
</svg>
