<svg width="222" height="209" viewBox="0 0 222 209" fill="none" xmlns="http://www.w3.org/2000/svg">
<path d="M221.009 84.6486C220.563 82.0329 220.018 79.5045 219.463 77.161C216.466 63.7337 210.872 50.9953 202.984 39.6362L198.396 33.0141L201.23 40.5207C204.841 50.1166 206.832 60.2264 207.126 70.4515C206.958 73.4659 206.73 76.208 206.433 78.8432C205.288 90.3109 202.231 101.516 197.385 112.012C197.039 112.731 196.682 113.441 196.325 114.151C191.932 122.797 185.875 130.528 178.488 136.915C168.133 145.672 155.675 151.696 142.29 154.418V137.508C149.066 134.701 155.42 131.001 161.177 126.51C170.423 118.81 177.72 109.107 182.492 98.1663C187.263 87.2258 189.379 75.3469 188.673 63.4666C187.967 51.5864 184.458 40.0294 178.422 29.7075C172.386 19.3856 163.99 10.581 153.894 3.98781L148.404 0.389739L152.586 5.40748C156.663 10.2906 159.884 15.805 162.118 21.7246C162.703 23.2805 163.208 24.8458 163.635 26.3725C164.54 29.6563 165.13 33.0158 165.398 36.4075V36.4659C165.517 37.9537 165.567 39.4803 165.547 41.0069V41.3963C165.547 41.6588 165.547 41.921 165.547 42.203C165.478 44.1261 165.306 46.0445 165.032 47.95L164.764 49.6517C162.565 61.9539 156.122 73.1403 146.517 81.3355C136.912 89.5306 124.728 94.2365 112.007 94.6642H110.025C97.3156 94.2207 85.1466 89.5066 75.5554 81.3108C65.9642 73.115 59.5329 61.9351 57.338 49.6422L57.0705 47.9405C56.7818 46.0229 56.5966 44.0914 56.5156 42.1545C56.5156 41.8725 56.5156 41.6099 56.5156 41.3474V40.9585C56.5156 39.4318 56.5156 37.9052 56.6642 36.4175V36.3591C56.9321 32.9674 57.5226 29.6079 58.428 26.3241C58.8541 24.7974 59.3595 23.2316 59.9442 21.6757C62.1786 15.7561 65.4 10.2422 69.4769 5.35905L73.6586 0.341309L68.1688 3.93938C58.073 10.5325 49.6761 19.3372 43.6405 29.6591C37.6049 39.981 34.0956 51.5379 33.3894 63.4182C32.6832 75.2985 34.7993 87.1774 39.571 98.1179C44.3427 109.058 51.6393 118.762 60.8855 126.462C66.6429 130.953 72.997 134.652 79.7726 137.459V154.37C66.3872 151.647 53.9292 145.623 43.5741 136.866C36.21 130.476 30.1736 122.75 25.7969 114.112C25.4402 113.402 25.0834 112.692 24.7366 111.973C19.8909 101.477 16.8345 90.2719 15.6895 78.8043C15.3922 76.1691 15.1643 73.427 14.9958 70.4126C15.3055 60.1848 17.3137 50.0749 20.9414 40.4818L23.7754 32.9751L19.1874 39.5972C11.2636 50.9614 5.63883 63.7138 2.61916 77.161C2.04442 79.5045 1.51923 82.0232 1.07332 84.6486C-1.09268 100.062 0.131892 115.751 4.66457 130.661C9.19725 145.571 16.9328 159.354 27.3504 171.084C37.7679 182.813 50.6256 192.215 65.0576 198.658C79.4897 205.101 95.161 208.436 111.016 208.436C126.872 208.436 142.543 205.101 156.975 198.658C171.407 192.215 184.265 182.813 194.682 171.084C205.1 159.354 212.836 145.571 217.368 130.661C221.901 115.751 223.126 100.062 220.96 84.6486H221.009ZM52.0267 76.3927C52.6609 77.6277 53.3347 78.8334 54.0085 80.0003C59.8109 89.7927 68.1306 97.9196 78.1362 103.568C88.1419 109.217 99.483 112.19 111.026 112.19C122.57 112.19 133.911 109.217 143.916 103.568C153.922 97.9196 162.242 89.7927 168.044 80.0003C168.758 78.8334 169.431 77.6277 170.026 76.3927C168.863 85.4753 165.564 94.1681 160.39 101.784C155.215 109.401 148.306 115.732 140.209 120.277L140.001 120.404C131.149 125.312 121.154 127.891 110.987 127.891C100.819 127.891 90.8245 125.312 81.9724 120.404L81.7643 120.277C73.6729 115.728 66.77 109.396 61.6004 101.78C56.4309 94.1636 53.1364 85.4726 51.9771 76.3927H52.0267ZM71.0524 178.495L70.9434 178.573L70.8542 178.631L70.6362 178.757L64.3042 182.695C42.3156 171.999 27.64 154.185 24.4889 134.572C25.4137 135.972 26.4047 137.333 27.4616 138.656C39.3527 154.214 58.2497 165.669 79.9806 171.28C79.4786 171.805 78.9633 172.32 78.4348 172.826C76.2462 174.904 73.8529 176.764 71.2902 178.378L71.0524 178.495ZM122.66 194.218C118.82 194.734 114.951 195.02 111.076 195.074V195.074C107.2 195.02 103.332 194.734 99.492 194.218C91.5611 193.172 83.803 191.115 76.4133 188.102C76.6313 187.966 76.8493 187.84 77.0574 187.694C80.1227 185.768 82.9842 183.546 85.5992 181.062C87.4799 179.271 89.2314 177.354 90.8412 175.325L91.1781 174.916C93.4194 171.979 94.6232 168.405 94.6067 164.735V142.613L95.0526 142.691C105.649 144.636 116.522 144.636 127.119 142.691L127.565 142.613V164.677C127.548 168.346 128.752 171.921 130.993 174.858L131.33 175.267C132.94 177.296 134.692 179.213 136.572 181.004C139.187 183.488 142.049 185.71 145.114 187.635C145.322 187.781 145.54 187.907 145.758 188.044C138.347 191.069 130.566 193.132 122.61 194.18L122.66 194.218ZM157.828 182.695L151.496 178.757L151.278 178.631L151.189 178.573L151.08 178.495L150.881 178.378C148.319 176.764 145.925 174.904 143.737 172.826C143.215 172.32 142.7 171.805 142.191 171.28C163.922 165.669 182.819 154.195 194.71 138.656C195.741 137.359 196.731 135.998 197.683 134.572C194.442 154.146 179.767 171.99 157.778 182.657L157.828 182.695Z" fill="white"/>
</svg>
